<svg width="153" height="57" viewBox="0 0 153 57" fill="none" xmlns="http://www.w3.org/2000/svg">
<path d="M9.395 19.7654C6.515 19.7654 4.265 18.9104 2.645 17.2004C1.025 15.4904 0.215 13.0604 0.215 9.91035C0.215 7.84035 0.566 6.06735 1.268 4.59135C1.988 3.09735 2.987 1.97235 4.265 1.21635C5.561 0.442351 7.055 0.0553507 8.747 0.0553507C9.773 0.0553507 10.808 0.352351 11.852 0.94635C12.248 1.16235 12.644 1.45035 13.04 1.81035C13.346 1.34235 13.661 0.97335 13.985 0.70335C14.309 0.46935 14.489 0.34335 14.525 0.32535H15.2V5.45535H14.12C13.886 4.59135 13.535 3.80835 13.067 3.10635C12.635 2.42235 12.095 1.85535 11.447 1.40535C10.817 0.95535 10.088 0.73035 9.26 0.73035C8.018 0.73035 6.983 1.45035 6.155 2.89035C5.345 4.33035 4.94 6.67035 4.94 9.91035C4.94 13.2044 5.381 15.5624 6.263 16.9844C7.163 18.3884 8.387 19.0904 9.935 19.0904C10.781 19.0904 11.582 18.8564 12.338 18.3884C13.112 17.9024 13.733 17.2634 14.201 16.4714C14.687 15.6794 14.93 14.8424 14.93 13.9604H15.605C15.605 14.9864 15.326 15.9494 14.768 16.8494C14.228 17.7314 13.481 18.4424 12.527 18.9824C11.591 19.5044 10.547 19.7654 9.395 19.7654ZM24.1332 19.7654C22.3692 19.7654 20.8212 19.3874 19.4892 18.6314C18.1752 17.8574 17.1582 16.7324 16.4382 15.2564C15.7182 13.7804 15.3582 11.9984 15.3582 9.91035C15.3582 7.82235 15.7182 6.04035 16.4382 4.56435C17.1582 3.08835 18.1752 1.97235 19.4892 1.21635C20.8212 0.442351 22.3692 0.0553507 24.1332 0.0553507C25.8972 0.0553507 27.4362 0.442351 28.7502 1.21635C30.0822 1.97235 31.1082 3.08835 31.8282 4.56435C32.5482 6.04035 32.9082 7.82235 32.9082 9.91035C32.9082 11.9984 32.5482 13.7804 31.8282 15.2564C31.1082 16.7324 30.0822 17.8574 28.7502 18.6314C27.4362 19.3874 25.8972 19.7654 24.1332 19.7654ZM24.1332 19.2254C24.8352 19.2254 25.4832 18.9284 26.0772 18.3344C26.6892 17.7404 27.1932 16.7504 27.5892 15.3644C27.9852 13.9784 28.1832 12.1604 28.1832 9.91035C28.1832 7.66035 27.9852 5.84235 27.5892 4.45635C27.1932 3.07035 26.6892 2.08035 26.0772 1.48635C25.4832 0.89235 24.8352 0.59535 24.1332 0.59535C23.4312 0.59535 22.7742 0.89235 22.1622 1.48635C21.5682 2.08035 21.0732 3.07035 20.6772 4.45635C20.2812 5.84235 20.0832 7.66035 20.0832 9.91035C20.0832 12.1604 20.2812 13.9784 20.6772 15.3644C21.0732 16.7504 21.5682 17.7404 22.1622 18.3344C22.7742 18.9284 23.4312 19.2254 24.1332 19.2254ZM36.0195 3.83535V18.1454L38.1795 18.9554V19.3604H33.0495V18.9554L35.2095 18.1454V1.27035L33.5895 0.86535V0.46035H36.9645C37.9005 0.46035 38.6385 0.65835 39.1785 1.05435C39.7365 1.43235 40.2135 1.99935 40.6095 2.75535L46.4955 14.0144L51.0045 2.75535C51.3105 1.96335 51.7245 1.38735 52.2465 1.02735C52.7685 0.649351 53.5695 0.46035 54.6495 0.46035H57.4845V0.86535L55.8645 1.27035V18.5504L57.4845 18.9554V19.3604H49.7895V18.9554L51.4095 18.5504V3.83535L45.0645 19.6304H44.2545L36.0195 3.83535ZM58.0404 18.9554L59.6604 18.5504V1.27035L58.0404 0.86535V0.46035H65.6004C68.5884 0.46035 70.7304 0.95535 72.0264 1.94535C73.3224 2.91735 73.9704 4.35735 73.9704 6.26535C73.9704 8.17335 73.3224 9.62235 72.0264 10.6124C70.7304 11.5844 68.5884 12.0704 65.6004 12.0704H64.1154V18.5504L65.7354 18.9554V19.3604H58.0404V18.9554ZM65.6004 11.3954C66.7344 11.3954 67.6434 10.9634 68.3274 10.0994C69.0294 9.23535 69.3804 7.95735 69.3804 6.26535C69.3804 4.59135 69.0294 3.32235 68.3274 2.45835C67.6434 1.57635 66.7344 1.13535 65.6004 1.13535H64.1154V11.3954H65.6004ZM74.3701 18.9554L75.9901 18.5504V1.27035L74.3701 0.86535V0.46035H82.0651V0.86535L80.4451 1.27035V18.6854H86.2501C86.2501 17.5514 86.5381 16.4984 87.1141 15.5264C87.3661 15.1124 87.6631 14.7704 88.0051 14.5004H88.8151V19.3604H74.3701V18.9554ZM88.9596 18.9554L90.5796 18.5504V1.27035L88.9596 0.86535V0.46035H103.405V5.32035H102.595C102.253 5.05035 101.956 4.70835 101.704 4.29435C101.128 3.32235 100.84 2.26935 100.84 1.13535H95.0346V9.64035H98.1396C98.2656 8.95635 98.4996 8.31735 98.8416 7.72335C98.9856 7.45335 99.1566 7.19235 99.3546 6.94035H100.165V13.0154H99.3546C99.1566 12.7634 98.9856 12.5024 98.8416 12.2324C98.4996 11.6384 98.2656 10.9994 98.1396 10.3154H95.0346V18.6854H101.38C101.38 17.5514 101.668 16.4984 102.244 15.5264C102.496 15.1124 102.793 14.7704 103.135 14.5004H103.945V19.3604H88.9596V18.9554ZM107.847 18.9554L109.467 18.5504V1.13535H106.362C106.362 2.23335 106.065 3.28635 105.471 4.29435C105.219 4.70835 104.931 5.05035 104.607 5.32035H103.797V0.46035H119.592V5.32035H118.782C118.44 5.05035 118.143 4.70835 117.891 4.29435C117.315 3.32235 117.027 2.26935 117.027 1.13535H113.922V18.5504L115.542 18.9554V19.3604H107.847V18.9554ZM119.721 18.9554L121.341 18.5504V1.27035L119.721 0.86535V0.46035H134.166V5.32035H133.356C133.014 5.05035 132.717 4.70835 132.465 4.29435C131.889 3.32235 131.601 2.26935 131.601 1.13535H125.796V9.64035H128.901C129.027 8.95635 129.261 8.31735 129.603 7.72335C129.747 7.45335 129.918 7.19235 130.116 6.94035H130.926V13.0154H130.116C129.918 12.7634 129.747 12.5024 129.603 12.2324C129.261 11.6384 129.027 10.9994 128.901 10.3154H125.796V18.6854H132.141C132.141 17.5514 132.429 16.4984 133.005 15.5264C133.257 15.1124 133.554 14.7704 133.896 14.5004H134.706V19.3604H119.721V18.9554ZM135.233 18.9554L136.853 18.5504V1.27035L135.233 0.86535V0.46035H142.118C145.34 0.46035 147.806 1.28835 149.516 2.94435C151.244 4.60035 152.108 6.92235 152.108 9.91035C152.108 12.8984 151.244 15.2204 149.516 16.8764C147.806 18.5324 145.34 19.3604 142.118 19.3604H135.233V18.9554ZM142.118 18.6854C143.792 18.6854 145.088 18.0104 146.006 16.6604C146.924 15.2924 147.383 13.0424 147.383 9.91035C147.383 6.77835 146.924 4.53735 146.006 3.18735C145.088 1.81935 143.792 1.13535 142.118 1.13535H141.308V18.6854H142.118ZM0.35 55.9554L1.97 55.5504V38.2704L0.35 37.8653V37.4604H7.91C10.898 37.4604 13.04 37.9554 14.336 38.9454C15.632 39.9174 16.28 41.3574 16.28 43.2654C16.28 45.1734 15.632 46.6224 14.336 47.6124C13.04 48.5844 10.898 49.0704 7.91 49.0704H6.425V55.5504L8.045 55.9554V56.3604H0.35V55.9554ZM7.91 48.3954C9.044 48.3954 9.953 47.9634 10.637 47.0994C11.339 46.2354 11.69 44.9574 11.69 43.2654C11.69 41.5914 11.339 40.3224 10.637 39.4584C9.953 38.5764 9.044 38.1354 7.91 38.1354H6.425V48.3954H7.91ZM16.6797 55.9554L18.2997 55.5504V38.2704L16.6797 37.8653V37.4604H23.8347C26.8947 37.4604 29.0997 37.9284 30.4497 38.8644C31.7997 39.7824 32.4747 41.0694 32.4747 42.7254C32.4747 43.8414 32.1777 44.7504 31.5837 45.4524C30.9897 46.1364 30.2247 46.6494 29.2887 46.9914C28.2987 47.3694 27.2457 47.5674 26.1297 47.5854V47.7204C26.7957 47.7564 27.3807 47.8554 27.8847 48.0174C29.1447 48.4134 29.9997 49.1244 30.4497 50.1504L32.8797 55.5504L34.2297 55.9554V56.3604H30.4497C28.9737 56.3604 27.8937 55.5954 27.2097 54.0654L24.5097 47.9904H22.7547V55.5504L24.6447 55.9554V56.3604H16.6797V55.9554ZM23.8347 47.3154C25.0947 47.3154 26.0847 46.9194 26.8047 46.1274C27.5247 45.3354 27.8847 44.2014 27.8847 42.7254C27.8847 41.2494 27.5247 40.1154 26.8047 39.3234C26.0847 38.5314 25.0947 38.1354 23.8347 38.1354H22.7547V47.3154H23.8347ZM42.0713 56.7654C40.3073 56.7654 38.7593 56.3874 37.4273 55.6314C36.1133 54.8574 35.0963 53.7324 34.3763 52.2564C33.6563 50.7804 33.2963 48.9984 33.2963 46.9104C33.2963 44.8224 33.6563 43.0404 34.3763 41.5644C35.0963 40.0884 36.1133 38.9724 37.4273 38.2164C38.7593 37.4424 40.3073 37.0554 42.0713 37.0554C43.8353 37.0554 45.3743 37.4424 46.6883 38.2164C48.0203 38.9724 49.0463 40.0884 49.7663 41.5644C50.4863 43.0404 50.8463 44.8224 50.8463 46.9104C50.8463 48.9984 50.4863 50.7804 49.7663 52.2564C49.0463 53.7324 48.0203 54.8574 46.6883 55.6314C45.3743 56.3874 43.8353 56.7654 42.0713 56.7654ZM42.0713 56.2254C42.7733 56.2254 43.4213 55.9284 44.0153 55.3344C44.6273 54.7404 45.1313 53.7504 45.5273 52.3644C45.9233 50.9784 46.1213 49.1604 46.1213 46.9104C46.1213 44.6604 45.9233 42.8424 45.5273 41.4564C45.1313 40.0704 44.6273 39.0804 44.0153 38.4863C43.4213 37.8924 42.7733 37.5954 42.0713 37.5954C41.3693 37.5954 40.7123 37.8924 40.1003 38.4863C39.5063 39.0804 39.0113 40.0704 38.6153 41.4564C38.2193 42.8424 38.0213 44.6604 38.0213 46.9104C38.0213 49.1604 38.2193 50.9784 38.6153 52.3644C39.0113 53.7504 39.5063 54.7404 40.1003 55.3344C40.7123 55.9284 41.3693 56.2254 42.0713 56.2254ZM54.6453 56.7654C52.9893 56.7654 51.7383 56.4774 50.8923 55.9014C50.0643 55.3254 49.6503 54.6234 49.6503 53.7954C49.6503 53.1834 49.8303 52.6974 50.1903 52.3374C50.5683 51.9594 51.0633 51.7704 51.6753 51.7704C51.8193 51.7704 51.9633 51.7884 52.1073 51.8244C52.2513 51.8424 52.3503 51.8514 52.4043 51.8514L52.7553 51.9054V55.9554C52.8813 56.0274 53.0073 56.0724 53.1333 56.0904C53.4393 56.1804 53.7633 56.2254 54.1053 56.2254C56.2653 56.2254 57.3453 54.4704 57.3453 50.9604V38.2704L55.7253 37.8653V37.4604H63.4203V37.8653L61.8003 38.2704V50.9604C61.8003 52.8324 61.2153 54.2724 60.0453 55.2804C58.8753 56.2704 57.0753 56.7654 54.6453 56.7654ZM63.955 55.9554L65.575 55.5504V38.2704L63.955 37.8653V37.4604H78.4V42.3204H77.59C77.248 42.0504 76.951 41.7084 76.699 41.2944C76.123 40.3224 75.835 39.2694 75.835 38.1354H70.03V46.6404H73.135C73.261 45.9564 73.495 45.3174 73.837 44.7234C73.981 44.4534 74.152 44.1924 74.35 43.9404H75.16V50.0154H74.35C74.152 49.7634 73.981 49.5024 73.837 49.2324C73.495 48.6384 73.261 47.9994 73.135 47.3154H70.03V55.6854H76.375C76.375 54.5514 76.663 53.4984 77.239 52.5264C77.491 52.1124 77.788 51.7704 78.13 51.5004H78.94V56.3604H63.955V55.9554ZM88.2487 56.7654C85.3687 56.7654 83.1187 55.9104 81.4987 54.2004C79.8787 52.4904 79.0687 50.0604 79.0687 46.9104C79.0687 44.8404 79.4197 43.0674 80.1217 41.5914C80.8417 40.0974 81.8407 38.9724 83.1187 38.2164C84.4147 37.4424 85.9087 37.0554 87.6007 37.0554C88.6267 37.0554 89.6617 37.3524 90.7057 37.9464C91.1017 38.1624 91.4977 38.4504 91.8937 38.8104C92.1997 38.3424 92.5147 37.9734 92.8387 37.7034C93.1627 37.4694 93.3427 37.3434 93.3787 37.3254H94.0537V42.4554H92.9737C92.7397 41.5914 92.3887 40.8084 91.9207 40.1064C91.4887 39.4224 90.9487 38.8554 90.3007 38.4054C89.6707 37.9554 88.9417 37.7304 88.1137 37.7304C86.8717 37.7304 85.8367 38.4504 85.0087 39.8904C84.1987 41.3304 83.7937 43.6704 83.7937 46.9104C83.7937 50.2044 84.2347 52.5624 85.1167 53.9844C86.0167 55.3884 87.2407 56.0904 88.7887 56.0904C89.6347 56.0904 90.4357 55.8564 91.1917 55.3884C91.9657 54.9024 92.5867 54.2634 93.0547 53.4714C93.5407 52.6794 93.7837 51.8424 93.7837 50.9604H94.4587C94.4587 51.9864 94.1797 52.9494 93.6217 53.8494C93.0817 54.7314 92.3347 55.4424 91.3807 55.9824C90.4447 56.5044 89.4007 56.7654 88.2487 56.7654ZM97.7219 55.9554L99.3419 55.5504V38.1354H96.2369C96.2369 39.2334 95.9399 40.2864 95.3459 41.2944C95.0939 41.7084 94.8059 42.0504 94.4819 42.3204H93.6719V37.4604H109.467V42.3204H108.657C108.315 42.0504 108.018 41.7084 107.766 41.2944C107.19 40.3224 106.902 39.2694 106.902 38.1354H103.797V55.5504L105.417 55.9554V56.3604H97.7219V55.9554ZM116.211 56.7654C114.933 56.7654 113.736 56.4774 112.62 55.9014C112.116 55.6494 111.693 55.3524 111.351 55.0104C111.099 55.4244 110.784 55.7934 110.406 56.1174C110.082 56.3514 109.902 56.4774 109.866 56.4954H109.191V51.3654H110.271C110.541 52.2474 110.919 53.0394 111.405 53.7414C112.503 55.3074 113.925 56.0904 115.671 56.0904C116.697 56.0904 117.516 55.7844 118.128 55.1724C118.74 54.5604 119.046 53.7414 119.046 52.7154C119.046 52.1214 118.866 51.5904 118.506 51.1224C118.164 50.6544 117.732 50.2404 117.21 49.8804C116.688 49.5204 115.959 49.0704 115.023 48.5304C113.835 47.8644 112.872 47.2614 112.134 46.7214C111.396 46.1814 110.766 45.5064 110.244 44.6964C109.722 43.8684 109.461 42.8964 109.461 41.7804C109.461 40.8984 109.704 40.1064 110.19 39.4044C110.694 38.6844 111.441 38.1174 112.431 37.7034C113.421 37.2714 114.636 37.0554 116.076 37.0554C117.12 37.0554 118.164 37.3524 119.208 37.9464C119.604 38.1624 120 38.4504 120.396 38.8104C120.702 38.3424 121.017 37.9734 121.341 37.7034C121.665 37.4694 121.845 37.3434 121.881 37.3254H122.556V42.4554H121.476C121.242 41.5914 120.891 40.8084 120.423 40.1064C119.991 39.4224 119.451 38.8554 118.803 38.4054C118.173 37.9554 117.444 37.7304 116.616 37.7304C115.914 37.7304 115.311 38.0094 114.807 38.5674C114.303 39.1254 114.051 39.8364 114.051 40.7004C114.051 41.3664 114.24 41.9694 114.618 42.5094C115.014 43.0314 115.491 43.4904 116.049 43.8864C116.625 44.2824 117.399 44.7594 118.371 45.3174C119.505 45.9654 120.423 46.5414 121.125 47.0454C121.827 47.5494 122.421 48.1794 122.907 48.9354C123.393 49.6734 123.636 50.5284 123.636 51.5004C123.636 52.4724 123.357 53.3634 122.799 54.1734C122.241 54.9654 121.404 55.5954 120.288 56.0634C119.172 56.5314 117.813 56.7654 116.211 56.7654Z" fill="#E3B873"/>
</svg>
