<svg width="150" height="29" viewBox="0 0 150 29" fill="none" xmlns="http://www.w3.org/2000/svg">
<path d="M4.12994 19.21C3.46727 19.21 2.84661 19.0607 2.26794 18.762C2.00661 18.6313 1.78727 18.4773 1.60994 18.3C1.47927 18.5147 1.31594 18.706 1.11994 18.874C0.951939 18.9953 0.858606 19.0607 0.839939 19.07H0.489939V16.41H1.04994C1.18994 16.8673 1.38594 17.278 1.63794 17.642C2.20727 18.454 2.94461 18.86 3.84994 18.86C4.38194 18.86 4.80661 18.7013 5.12394 18.384C5.44127 18.0667 5.59994 17.642 5.59994 17.11C5.59994 16.802 5.50661 16.5267 5.31994 16.284C5.14261 16.0413 4.91861 15.8267 4.64794 15.64C4.37727 15.4533 3.99927 15.22 3.51394 14.94C2.89794 14.5947 2.39861 14.282 2.01594 14.002C1.63327 13.722 1.30661 13.372 1.03594 12.952C0.765272 12.5227 0.629939 12.0187 0.629939 11.44C0.629939 10.9827 0.755939 10.572 1.00794 10.208C1.26927 9.83467 1.65661 9.54067 2.16994 9.326C2.68327 9.102 3.31327 8.99 4.05994 8.99C4.60127 8.99 5.14261 9.144 5.68394 9.452C5.88927 9.564 6.09461 9.71333 6.29994 9.9C6.45861 9.65733 6.62194 9.466 6.78994 9.326C6.95794 9.20467 7.05127 9.13933 7.06994 9.13H7.41994V11.79H6.85994C6.73861 11.342 6.55661 10.936 6.31394 10.572C6.08994 10.2173 5.80994 9.92333 5.47394 9.69C5.14727 9.45667 4.76927 9.34 4.33994 9.34C3.97594 9.34 3.66327 9.48467 3.40194 9.774C3.14061 10.0633 3.00994 10.432 3.00994 10.88C3.00994 11.2253 3.10794 11.538 3.30394 11.818C3.50927 12.0887 3.75661 12.3267 4.04594 12.532C4.34461 12.7373 4.74594 12.9847 5.24994 13.274C5.83794 13.61 6.31394 13.9087 6.67794 14.17C7.04194 14.4313 7.34994 14.758 7.60194 15.15C7.85394 15.5327 7.97994 15.976 7.97994 16.48C7.97994 16.984 7.83527 17.446 7.54594 17.866C7.25661 18.2767 6.82261 18.6033 6.24394 18.846C5.66527 19.0887 4.96061 19.21 4.12994 19.21ZM13.7161 19.21C12.2228 19.21 11.0561 18.7667 10.2161 17.88C9.37611 16.9933 8.95611 15.7333 8.95611 14.1C8.95611 13.0267 9.13811 12.1073 9.50211 11.342C9.87544 10.5673 10.3934 9.984 11.0561 9.592C11.7281 9.19067 12.5028 8.99 13.3801 8.99C13.9121 8.99 14.4488 9.144 14.9901 9.452C15.1954 9.564 15.4008 9.71333 15.6061 9.9C15.7648 9.65733 15.9281 9.466 16.0961 9.326C16.2641 9.20467 16.3574 9.13933 16.3761 9.13H16.7261V11.79H16.1661C16.0448 11.342 15.8628 10.936 15.6201 10.572C15.3961 10.2173 15.1161 9.92333 14.7801 9.69C14.4534 9.45667 14.0754 9.34 13.6461 9.34C13.0021 9.34 12.4654 9.71333 12.0361 10.46C11.6161 11.2067 11.4061 12.42 11.4061 14.1C11.4061 15.808 11.6348 17.0307 12.0921 17.768C12.5588 18.496 13.1934 18.86 13.9961 18.86C14.4348 18.86 14.8501 18.7387 15.2421 18.496C15.6434 18.244 15.9654 17.9127 16.2081 17.502C16.4601 17.0913 16.5861 16.6573 16.5861 16.2H16.9361C16.9361 16.732 16.7914 17.2313 16.5021 17.698C16.2221 18.1553 15.8348 18.524 15.3401 18.804C14.8548 19.0747 14.3134 19.21 13.7161 19.21ZM18.1316 18.79L18.9716 18.58V9.62L18.1316 9.41V9.2H21.8416C23.4282 9.2 24.5716 9.44267 25.2716 9.928C25.9716 10.404 26.3216 11.0713 26.3216 11.93C26.3216 12.5087 26.1676 12.98 25.8596 13.344C25.5516 13.6987 25.1549 13.9647 24.6696 14.142C24.1562 14.338 23.6102 14.4407 23.0316 14.45V14.52C23.3769 14.5387 23.6802 14.59 23.9416 14.674C24.5949 14.8793 25.0382 15.248 25.2716 15.78L26.5316 18.58L27.2316 18.79V19H25.2716C24.5062 19 23.9462 18.6033 23.5916 17.81L22.1916 14.66H21.2816V18.58L22.2616 18.79V19H18.1316V18.79ZM21.8416 14.31C22.4949 14.31 23.0082 14.1047 23.3816 13.694C23.7549 13.2833 23.9416 12.6953 23.9416 11.93C23.9416 11.1647 23.7549 10.5767 23.3816 10.166C23.0082 9.75533 22.4949 9.55 21.8416 9.55H21.2816V14.31H21.8416ZM32.2776 19.21C31.3629 19.21 30.5603 19.014 29.8696 18.622C29.1883 18.2207 28.6609 17.6373 28.2876 16.872C27.9143 16.1067 27.7276 15.1827 27.7276 14.1C27.7276 13.0173 27.9143 12.0933 28.2876 11.328C28.6609 10.5627 29.1883 9.984 29.8696 9.592C30.5603 9.19067 31.3629 8.99 32.2776 8.99C33.1923 8.99 33.9903 9.19067 34.6716 9.592C35.3623 9.984 35.8943 10.5627 36.2676 11.328C36.6409 12.0933 36.8276 13.0173 36.8276 14.1C36.8276 15.1827 36.6409 16.1067 36.2676 16.872C35.8943 17.6373 35.3623 18.2207 34.6716 18.622C33.9903 19.014 33.1923 19.21 32.2776 19.21ZM32.2776 18.93C32.6416 18.93 32.9776 18.776 33.2856 18.468C33.6029 18.16 33.8643 17.6467 34.0696 16.928C34.2749 16.2093 34.3776 15.2667 34.3776 14.1C34.3776 12.9333 34.2749 11.9907 34.0696 11.272C33.8643 10.5533 33.6029 10.04 33.2856 9.732C32.9776 9.424 32.6416 9.27 32.2776 9.27C31.9136 9.27 31.5729 9.424 31.2556 9.732C30.9476 10.04 30.6909 10.5533 30.4856 11.272C30.2803 11.9907 30.1776 12.9333 30.1776 14.1C30.1776 15.2667 30.2803 16.2093 30.4856 16.928C30.6909 17.6467 30.9476 18.16 31.2556 18.468C31.5729 18.776 31.9136 18.93 32.2776 18.93ZM38.1609 18.79L39.0009 18.58V9.62L38.1609 9.41V9.2H42.1509V9.41L41.3109 9.62V18.65H44.3209C44.3209 18.062 44.4702 17.516 44.7689 17.012C44.8995 16.7973 45.0535 16.62 45.2309 16.48H45.6509V19H38.1609V18.79ZM46.7058 18.79L47.5458 18.58V9.62L46.7058 9.41V9.2H50.6958V9.41L49.8558 9.62V18.65H52.8658C52.8658 18.062 53.0151 17.516 53.3138 17.012C53.4445 16.7973 53.5985 16.62 53.7758 16.48H54.1958V19H46.7058V18.79ZM59.1745 18.79L60.0145 18.58V9.62L59.1745 9.41V9.2H62.7445C64.4152 9.2 65.6939 9.62933 66.5805 10.488C67.4765 11.3467 67.9245 12.5507 67.9245 14.1C67.9245 15.6493 67.4765 16.8533 66.5805 17.712C65.6939 18.5707 64.4152 19 62.7445 19H59.1745V18.79ZM62.7445 18.65C63.6125 18.65 64.2845 18.3 64.7605 17.6C65.2365 16.8907 65.4745 15.724 65.4745 14.1C65.4745 12.476 65.2365 11.314 64.7605 10.614C64.2845 9.90467 63.6125 9.55 62.7445 9.55H62.3245V18.65H62.7445ZM73.6624 19.21C72.7477 19.21 71.945 19.014 71.2544 18.622C70.573 18.2207 70.0457 17.6373 69.6724 16.872C69.299 16.1067 69.1124 15.1827 69.1124 14.1C69.1124 13.0173 69.299 12.0933 69.6724 11.328C70.0457 10.5627 70.573 9.984 71.2544 9.592C71.945 9.19067 72.7477 8.99 73.6624 8.99C74.577 8.99 75.375 9.19067 76.0564 9.592C76.747 9.984 77.279 10.5627 77.6524 11.328C78.0257 12.0933 78.2124 13.0173 78.2124 14.1C78.2124 15.1827 78.0257 16.1067 77.6524 16.872C77.279 17.6373 76.747 18.2207 76.0564 18.622C75.375 19.014 74.577 19.21 73.6624 19.21ZM73.6624 18.93C74.0264 18.93 74.3624 18.776 74.6704 18.468C74.9877 18.16 75.249 17.6467 75.4544 16.928C75.6597 16.2093 75.7624 15.2667 75.7624 14.1C75.7624 12.9333 75.6597 11.9907 75.4544 11.272C75.249 10.5533 74.9877 10.04 74.6704 9.732C74.3624 9.424 74.0264 9.27 73.6624 9.27C73.2984 9.27 72.9577 9.424 72.6404 9.732C72.3324 10.04 72.0757 10.5533 71.8704 11.272C71.665 11.9907 71.5624 12.9333 71.5624 14.1C71.5624 15.2667 71.665 16.2093 71.8704 16.928C72.0757 17.6467 72.3324 18.16 72.6404 18.468C72.9577 18.776 73.2984 18.93 73.6624 18.93ZM79.0622 9.55L78.2922 9.41V9.2H79.9722C80.4669 9.2 80.8729 9.312 81.1902 9.536C81.5075 9.76 81.7315 10.0447 81.8622 10.39L83.9762 15.78L85.2082 12.168L84.1722 9.55L83.4022 9.41V9.2H85.0822C85.5769 9.2 85.9782 9.312 86.2862 9.536C86.5942 9.75067 86.8229 10.0353 86.9722 10.39L89.0862 15.78L91.1022 9.83L90.0522 9.41V9.2H92.6422V9.41L91.5222 9.83L88.3722 19.14H87.9522L85.4322 12.742L83.2622 19.14H82.8422L79.0622 9.55ZM94.3271 11.58V18.37L95.4471 18.79V19H92.7871V18.79L93.9071 18.37V9.69L92.9271 9.41V9.2H94.3971C94.8918 9.2 95.2791 9.28867 95.5591 9.466C95.8391 9.64333 96.1051 9.88133 96.3571 10.18L100.837 15.43V9.83L99.7171 9.41V9.2H102.377V9.41L101.257 9.83V19.21H100.837L94.3271 11.58Z" fill="white"/>
<circle cx="135.5" cy="14.5" r="13.75" stroke="#E3B873" stroke-width="1.5"/>
<path d="M139.721 13.1271L135.408 17.4092L131.095 13.1271" stroke="#E3B873" stroke-width="1.5"/>
</svg>
