<svg width="20" height="174" viewBox="0 0 20 174" fill="none" xmlns="http://www.w3.org/2000/svg">
<path d="M15.338 32.729L15.338 34.549L6 34.549L6 32.729L15.338 32.729ZM6 38.5002L6 36.6802L15.548 36.6802L15.548 37.9402L9.052 43.6242L15.338 43.6242L15.338 45.4442L5.818 45.4442L5.818 44.1842L12.314 38.5002L6 38.5002ZM14.456 53.1207L13.21 52.1687C13.742 51.7674 14.008 51.2587 14.008 50.6427C14.008 50.1947 13.896 49.868 13.672 49.6627C13.4573 49.4574 13.2053 49.3547 12.916 49.3547C12.664 49.3547 12.454 49.4527 12.286 49.6487C12.146 49.798 11.9687 50.1714 11.754 50.7687C11.4367 51.6927 11.124 52.3227 10.816 52.6587C10.34 53.1907 9.68667 53.4567 8.856 53.4567C7.94133 53.4567 7.19933 53.1534 6.63 52.5467C6.07 51.9494 5.79 51.17 5.79 50.2087C5.79 48.8647 6.378 47.7914 7.554 46.9887L8.688 48.1787C8.268 48.384 7.95533 48.6687 7.75 49.0327C7.54467 49.3967 7.442 49.7654 7.442 50.1387C7.442 50.5587 7.55867 50.904 7.792 51.1747C8.03467 51.4454 8.34733 51.5807 8.73 51.5807C9.05667 51.5807 9.33667 51.4594 9.57 51.2167C9.77533 50.9927 10.004 50.512 10.256 49.7747C10.4893 49.084 10.76 48.566 11.068 48.2207C11.4973 47.726 12.076 47.4787 12.804 47.4787C13.56 47.4787 14.204 47.7354 14.736 48.2487C15.2773 48.762 15.548 49.504 15.548 50.4747C15.548 51.5294 15.184 52.4114 14.456 53.1207ZM13.77 60.0952L13.77 57.9952L6 57.9952L6 56.1752L13.77 56.1752L13.77 54.0752L15.338 54.0752L15.338 60.0952L13.77 60.0952ZM6 67.0577L7.96 66.2317L7.96 62.4657L6 61.6397L6 59.6657L15.534 63.7117L15.534 65.0837L6 69.0177L6 67.0577ZM9.444 63.0397L9.444 65.6997L12.804 64.3837L9.444 63.0397ZM9.43 74.8126L10.998 74.8126L10.998 79.0966L10.76 79.0966C9.48133 79.0966 8.43133 78.8119 7.61 78.2426C6.39666 77.4026 5.79 76.1659 5.79 74.5326C5.79 73.0859 6.238 71.9053 7.134 70.9906C8.03933 70.0853 9.21533 69.6326 10.662 69.6326C12.1087 69.6326 13.2847 70.0946 14.19 71.0186C15.0953 71.9519 15.548 73.1419 15.548 74.5886C15.548 75.2046 15.464 75.7646 15.296 76.2686C15.128 76.7726 14.904 77.1833 14.624 77.5006C14.344 77.8179 14.1107 78.0513 13.924 78.2006C13.7467 78.3499 13.5553 78.4806 13.35 78.5926L12.496 77.0106C12.6173 76.9359 12.7387 76.8473 12.86 76.7446C12.9907 76.6513 13.14 76.5066 13.308 76.3106C13.4853 76.1146 13.6253 75.8626 13.728 75.5546C13.84 75.2559 13.896 74.9293 13.896 74.5746C13.896 73.6693 13.5787 72.9319 12.944 72.3626C12.3187 71.7933 11.5487 71.5086 10.634 71.5086C9.80333 71.5086 9.06133 71.7653 8.408 72.2786C7.764 72.7919 7.442 73.5526 7.442 74.5606C7.442 75.2606 7.60533 75.8533 7.932 76.3386C8.25866 76.8333 8.758 77.1273 9.43 77.2206L9.43 74.8126ZM15.338 80.772L15.338 83.474C15.338 84.5007 15.1047 85.294 14.638 85.854C14.1153 86.47 13.4153 86.778 12.538 86.778C11.5673 86.778 10.8347 86.414 10.34 85.686C10.144 85.406 10.0087 85.0653 9.934 84.664L6 87.576L6 85.308L9.752 82.816L9.752 82.592L6 82.592L6 80.772L15.338 80.772ZM13.854 82.592L11.04 82.592L11.04 83.11C11.04 83.2593 11.0493 83.404 11.068 83.544C11.096 83.6933 11.1473 83.8847 11.222 84.118C11.306 84.3513 11.4507 84.538 11.656 84.678C11.8707 84.8273 12.1367 84.902 12.454 84.902C12.7713 84.902 13.0327 84.832 13.238 84.692C13.4527 84.552 13.5973 84.3653 13.672 84.132C13.756 83.8987 13.8073 83.712 13.826 83.572C13.8447 83.432 13.854 83.2873 13.854 83.138L13.854 82.592ZM6 95.1671L7.96 94.3411L7.96 90.5751L6 89.7491L6 87.7751L15.534 91.8211L15.534 93.1931L6 97.1271L6 95.1671ZM9.444 91.1491L9.444 93.8091L12.804 92.4931L9.444 91.1491ZM6 97.7413L15.506 99.4773L15.506 100.737L9.402 103.271L15.506 105.917L15.506 107.177L6 108.745L6 106.897L11.754 106.057L5.874 103.495L5.874 102.991L11.754 100.541L6 99.5893L6 97.7413Z" fill="#E3B873"/>
<path d="M10 123L10 174" stroke="#E3B873" stroke-width="1.5"/>
</svg>
