<svg width="103" height="12" viewBox="0 0 103 12" fill="none" xmlns="http://www.w3.org/2000/svg">
<path d="M4.12994 11.21C3.46727 11.21 2.84661 11.0607 2.26794 10.762C2.00661 10.6313 1.78727 10.4773 1.60994 10.3C1.47927 10.5147 1.31594 10.706 1.11994 10.874C0.951939 10.9953 0.858606 11.0607 0.839939 11.07H0.489939V8.41H1.04994C1.18994 8.86733 1.38594 9.278 1.63794 9.642C2.20727 10.454 2.94461 10.86 3.84994 10.86C4.38194 10.86 4.80661 10.7013 5.12394 10.384C5.44127 10.0667 5.59994 9.642 5.59994 9.11C5.59994 8.802 5.50661 8.52667 5.31994 8.284C5.14261 8.04133 4.91861 7.82667 4.64794 7.64C4.37727 7.45333 3.99927 7.22 3.51394 6.94C2.89794 6.59467 2.39861 6.282 2.01594 6.002C1.63327 5.722 1.30661 5.372 1.03594 4.952C0.765272 4.52267 0.629939 4.01867 0.629939 3.44C0.629939 2.98267 0.755939 2.572 1.00794 2.208C1.26927 1.83467 1.65661 1.54067 2.16994 1.326C2.68327 1.102 3.31327 0.99 4.05994 0.99C4.60127 0.99 5.14261 1.144 5.68394 1.452C5.88927 1.564 6.09461 1.71333 6.29994 1.9C6.45861 1.65733 6.62194 1.466 6.78994 1.326C6.95794 1.20467 7.05127 1.13933 7.06994 1.13H7.41994V3.79H6.85994C6.73861 3.342 6.55661 2.936 6.31394 2.572C6.08994 2.21733 5.80994 1.92333 5.47394 1.69C5.14727 1.45667 4.76927 1.34 4.33994 1.34C3.97594 1.34 3.66327 1.48467 3.40194 1.774C3.14061 2.06333 3.00994 2.432 3.00994 2.88C3.00994 3.22533 3.10794 3.538 3.30394 3.818C3.50927 4.08867 3.75661 4.32667 4.04594 4.532C4.34461 4.73733 4.74594 4.98467 5.24994 5.274C5.83794 5.61 6.31394 5.90867 6.67794 6.17C7.04194 6.43133 7.34994 6.758 7.60194 7.15C7.85394 7.53267 7.97994 7.976 7.97994 8.48C7.97994 8.984 7.83527 9.446 7.54594 9.866C7.25661 10.2767 6.82261 10.6033 6.24394 10.846C5.66527 11.0887 4.96061 11.21 4.12994 11.21ZM13.7161 11.21C12.2228 11.21 11.0561 10.7667 10.2161 9.88C9.37611 8.99333 8.95611 7.73333 8.95611 6.1C8.95611 5.02667 9.13811 4.10733 9.50211 3.342C9.87544 2.56733 10.3934 1.984 11.0561 1.592C11.7281 1.19067 12.5028 0.99 13.3801 0.99C13.9121 0.99 14.4488 1.144 14.9901 1.452C15.1954 1.564 15.4008 1.71333 15.6061 1.9C15.7648 1.65733 15.9281 1.466 16.0961 1.326C16.2641 1.20467 16.3574 1.13933 16.3761 1.13H16.7261V3.79H16.1661C16.0448 3.342 15.8628 2.936 15.6201 2.572C15.3961 2.21733 15.1161 1.92333 14.7801 1.69C14.4534 1.45667 14.0754 1.34 13.6461 1.34C13.0021 1.34 12.4654 1.71333 12.0361 2.46C11.6161 3.20667 11.4061 4.42 11.4061 6.1C11.4061 7.808 11.6348 9.03067 12.0921 9.768C12.5588 10.496 13.1934 10.86 13.9961 10.86C14.4348 10.86 14.8501 10.7387 15.2421 10.496C15.6434 10.244 15.9654 9.91267 16.2081 9.502C16.4601 9.09133 16.5861 8.65733 16.5861 8.2H16.9361C16.9361 8.732 16.7914 9.23133 16.5021 9.698C16.2221 10.1553 15.8348 10.524 15.3401 10.804C14.8548 11.0747 14.3134 11.21 13.7161 11.21ZM18.1316 10.79L18.9716 10.58V1.62L18.1316 1.41V1.2H21.8416C23.4282 1.2 24.5716 1.44267 25.2716 1.928C25.9716 2.404 26.3216 3.07133 26.3216 3.93C26.3216 4.50867 26.1676 4.98 25.8596 5.344C25.5516 5.69867 25.1549 5.96467 24.6696 6.142C24.1562 6.338 23.6102 6.44067 23.0316 6.45V6.52C23.3769 6.53867 23.6802 6.59 23.9416 6.674C24.5949 6.87933 25.0382 7.248 25.2716 7.78L26.5316 10.58L27.2316 10.79V11H25.2716C24.5062 11 23.9462 10.6033 23.5916 9.81L22.1916 6.66H21.2816V10.58L22.2616 10.79V11H18.1316V10.79ZM21.8416 6.31C22.4949 6.31 23.0082 6.10467 23.3816 5.694C23.7549 5.28333 23.9416 4.69533 23.9416 3.93C23.9416 3.16467 23.7549 2.57667 23.3816 2.166C23.0082 1.75533 22.4949 1.55 21.8416 1.55H21.2816V6.31H21.8416ZM32.2776 11.21C31.3629 11.21 30.5603 11.014 29.8696 10.622C29.1883 10.2207 28.6609 9.63733 28.2876 8.872C27.9143 8.10667 27.7276 7.18267 27.7276 6.1C27.7276 5.01733 27.9143 4.09333 28.2876 3.328C28.6609 2.56267 29.1883 1.984 29.8696 1.592C30.5603 1.19067 31.3629 0.99 32.2776 0.99C33.1923 0.99 33.9903 1.19067 34.6716 1.592C35.3623 1.984 35.8943 2.56267 36.2676 3.328C36.6409 4.09333 36.8276 5.01733 36.8276 6.1C36.8276 7.18267 36.6409 8.10667 36.2676 8.872C35.8943 9.63733 35.3623 10.2207 34.6716 10.622C33.9903 11.014 33.1923 11.21 32.2776 11.21ZM32.2776 10.93C32.6416 10.93 32.9776 10.776 33.2856 10.468C33.6029 10.16 33.8643 9.64667 34.0696 8.928C34.2749 8.20933 34.3776 7.26667 34.3776 6.1C34.3776 4.93333 34.2749 3.99067 34.0696 3.272C33.8643 2.55333 33.6029 2.04 33.2856 1.732C32.9776 1.424 32.6416 1.27 32.2776 1.27C31.9136 1.27 31.5729 1.424 31.2556 1.732C30.9476 2.04 30.6909 2.55333 30.4856 3.272C30.2803 3.99067 30.1776 4.93333 30.1776 6.1C30.1776 7.26667 30.2803 8.20933 30.4856 8.928C30.6909 9.64667 30.9476 10.16 31.2556 10.468C31.5729 10.776 31.9136 10.93 32.2776 10.93ZM38.1609 10.79L39.0009 10.58V1.62L38.1609 1.41V1.2H42.1509V1.41L41.3109 1.62V10.65H44.3209C44.3209 10.062 44.4702 9.516 44.7689 9.012C44.8995 8.79733 45.0535 8.62 45.2309 8.48H45.6509V11H38.1609V10.79ZM46.7058 10.79L47.5458 10.58V1.62L46.7058 1.41V1.2H50.6958V1.41L49.8558 1.62V10.65H52.8658C52.8658 10.062 53.0151 9.516 53.3138 9.012C53.4445 8.79733 53.5985 8.62 53.7758 8.48H54.1958V11H46.7058V10.79ZM59.1745 10.79L60.0145 10.58V1.62L59.1745 1.41V1.2H62.7445C64.4152 1.2 65.6939 1.62933 66.5805 2.488C67.4765 3.34667 67.9245 4.55067 67.9245 6.1C67.9245 7.64933 67.4765 8.85333 66.5805 9.712C65.6939 10.5707 64.4152 11 62.7445 11H59.1745V10.79ZM62.7445 10.65C63.6125 10.65 64.2845 10.3 64.7605 9.6C65.2365 8.89067 65.4745 7.724 65.4745 6.1C65.4745 4.476 65.2365 3.314 64.7605 2.614C64.2845 1.90467 63.6125 1.55 62.7445 1.55H62.3245V10.65H62.7445ZM73.6624 11.21C72.7477 11.21 71.945 11.014 71.2544 10.622C70.573 10.2207 70.0457 9.63733 69.6724 8.872C69.299 8.10667 69.1124 7.18267 69.1124 6.1C69.1124 5.01733 69.299 4.09333 69.6724 3.328C70.0457 2.56267 70.573 1.984 71.2544 1.592C71.945 1.19067 72.7477 0.99 73.6624 0.99C74.577 0.99 75.375 1.19067 76.0564 1.592C76.747 1.984 77.279 2.56267 77.6524 3.328C78.0257 4.09333 78.2124 5.01733 78.2124 6.1C78.2124 7.18267 78.0257 8.10667 77.6524 8.872C77.279 9.63733 76.747 10.2207 76.0564 10.622C75.375 11.014 74.577 11.21 73.6624 11.21ZM73.6624 10.93C74.0264 10.93 74.3624 10.776 74.6704 10.468C74.9877 10.16 75.249 9.64667 75.4544 8.928C75.6597 8.20933 75.7624 7.26667 75.7624 6.1C75.7624 4.93333 75.6597 3.99067 75.4544 3.272C75.249 2.55333 74.9877 2.04 74.6704 1.732C74.3624 1.424 74.0264 1.27 73.6624 1.27C73.2984 1.27 72.9577 1.424 72.6404 1.732C72.3324 2.04 72.0757 2.55333 71.8704 3.272C71.665 3.99067 71.5624 4.93333 71.5624 6.1C71.5624 7.26667 71.665 8.20933 71.8704 8.928C72.0757 9.64667 72.3324 10.16 72.6404 10.468C72.9577 10.776 73.2984 10.93 73.6624 10.93ZM79.0622 1.55L78.2922 1.41V1.2H79.9722C80.4669 1.2 80.8729 1.312 81.1902 1.536C81.5075 1.76 81.7315 2.04467 81.8622 2.39L83.9762 7.78L85.2082 4.168L84.1722 1.55L83.4022 1.41V1.2H85.0822C85.5769 1.2 85.9782 1.312 86.2862 1.536C86.5942 1.75067 86.8229 2.03533 86.9722 2.39L89.0862 7.78L91.1022 1.83L90.0522 1.41V1.2H92.6422V1.41L91.5222 1.83L88.3722 11.14H87.9522L85.4322 4.742L83.2622 11.14H82.8422L79.0622 1.55ZM94.3271 3.58V10.37L95.4471 10.79V11H92.7871V10.79L93.9071 10.37V1.69L92.9271 1.41V1.2H94.3971C94.8918 1.2 95.2791 1.28867 95.5591 1.466C95.8391 1.64333 96.1051 1.88133 96.3571 2.18L100.837 7.43V1.83L99.7171 1.41V1.2H102.377V1.41L101.257 1.83V11.21H100.837L94.3271 3.58Z" fill="white"/>
</svg>
